<svg version="1" xmlns="http://www.w3.org/2000/svg" width="346.667" height="346.667" viewBox="0 0 260.000000 260.000000"><path d="M.2 51.7C.1 53 .6 54 1.3 54c.8 0 .7.4-.3 1-1.3.9-1.3 1.1 0 2 .8.5 1 1 .4 1C0 58 0 69 1.4 69c.8 0 .8.2 0 .8-1.3.9-1.3 10.5 0 11.4.8.6.8.8 0 .8C0 82 0 93 1.4 93c.8 0 .8.3.1.8C.1 94.8 0 105 1.4 105c.8 0 .8.3 0 .8-1.3.9-1.3 10.5 0 11.4.8.5.7.8-.1.8-.8 0-1.2 13.5-1.2 52.5L-.1 223H13v-85.6h9c5 .1 9 .4 9 .8 0 .5.6.8 1.3.8 1.3 0 16.7 14.3 16.7 15.4 0 .3 4.5 5.1 10 10.6 5.5 5.6 10 10.6 10 11.1 0 .6.5.7 1.2.3.8-.5.9-.2.5.9-.3.9-.3 1.6.1 1.6 2.3-.4 3.4.3 2.8 1.7-.3.8-.2 1.3.3 1 1.2-.8 3.3 1.9 2.3 2.9-.4.5-.2.5.4.2 1.4-.8 3.7 1.7 2.6 2.8-.4.5.1.5 1 .2 1-.3 1.7-.3 1.5.1-.1.4.1.7.5.7 1.2 0 3.7 3.9 3.1 4.9-.4.5-.1.6.5.2.7-.4 1.2-.2 1.2.4 0 .6.4.8 1 .5.6-.3.7.1.4.9-.4 1-.1 1.6.9 1.6.9 0 1.9.9 2.2 2 .4 1.1 1.1 1.7 1.7 1.4.8-.5.9-.1.5 1-.4.9-.3 1.5.2 1.2 1.2-.8 4.3 2.9 3.4 3.9-.5.4-.3.5.3.2 1.2-.7 4.6 2.8 3.6 3.8-.4.4-.2.5.3.4.6-.2 3.7 2.5 7.1 5.9l6.1 6.2h7.1c4.1 0 7.2-.4 7.2-1s-.5-1-1.1-1c-.6 0-3-2-5.5-4.5-2.4-2.5-4.1-4.5-3.8-4.5.3 0-.1-.7-1-1.5-.8-.8-2-1.5-2.6-1.5-.6 0-.8-.5-.5-1 .3-.6-.1-1-1-1s-1.3-.5-1-1c.3-.6.1-1-.4-1-.6 0-1.1-.7-1.1-1.6 0-.8-.5-1.2-1-.9-.6.3-1.3-.1-1.6-.9-.3-.9-1.1-1.3-1.7-.9-.6.3-.7.1-.3-.5.4-.6-.2-1.7-1.4-2.4-1.1-.7-2-1.9-2-2.6 0-.9-.6-1.2-1.6-.8-.8.3-1.2.2-.9-.3.3-.6-.3-1.4-1.2-2-1-.6-1.5-1.1-1-1.1 1 0-3.1-4-4.1-4-.5 0-1.5-1.1-2.2-2.5-.7-1.4-1.7-2.5-2.2-2.5-.4 0-.8-.7-.8-1.6 0-.8-.3-1.3-.7-1.1-1 .6-10.3-9-9.5-9.7.3-.3 0-.6-.6-.6-1.4 0-5.2-3.6-5.2-4.9 0-.5-.9-1.2-2-1.6-1.1-.3-1.9-.9-1.7-1.3.3-1-9-10.2-10.3-10.2-.6 0-.8-.5-.5-1 .3-.6-.4-1.4-1.7-1.9-1.3-.6-1.8-1-1.1-1 .7-.1.3-1.1-1-2.4-1.2-1.3-2.5-2.2-2.9-2-.5.2-.8-.3-.8-1.2 0-.9-.5-1.3-1-1-.6.3-1 0-1-.7 0-1.4-3.5-4.9-4.3-4.2-.2.2-1.2-.6-2.3-1.8-1-1.2-1.4-1.8-.8-1.5.7.4 1.5 0 1.8-.9.3-.9 1.2-1.4 2-1.1.9.4 1.6-.3 2-1.9.4-1.3 1-2.3 1.5-2.1 1 .2 5.1-4.2 5.1-5.5 0-.5.5-.6 1-.3.6.3 1 .1 1-.5s.5-.8 1.2-.4c.6.4.8.3.5-.3-.4-.6.1-1.7 1.1-2.6 1.5-1.4 2-1.3 4.7 1 1.7 1.5 3 2.9 3 3.2 0 .3.6.5 1.3.3.8-.2 1.1.1.8.7-.4.6.2 1.8 1.3 2.8 1.1.9 1.8 2 1.5 2.5-.3.5-.2.8.3.7 1.8-.3 3.4.1 2.9.9-.2.4.2 1.6 1 2.7 1 1.4 1.4 1.5 1.5.4 0-.8.4-.4.9.8.5 1.3 1.4 2.3 1.9 2.3s1.3.9 1.6 2c.3 1.1 1.3 2 2.1 2s1.3.4.9.9c-.3.5.4 1.3 1.6 1.6 1.1.4 1.8.9 1.5 1.2-.3.4 1.8 2.8 4.7 5.6 2.8 2.7 5.1 5.3 5 5.8-.2.5.2.9.8.9 1.2 0 6.9 6 6.9 7.3 0 .4.5.5 1 .2.6-.3 1-.1 1 .5 0 .7 2.5 1 7.3.9 5.4-.1 7.4-.5 7.4-1.5 0-1.1-.3-1.1-1.6-.1-1.2.9-1.3.9-.7-.1.4-.7.1-1.5-.8-1.8-.9-.3-1.6-1.2-1.6-2s-.7-1.4-1.5-1.4-1.5-.3-1.5-.8c0-1.3-5.7-7.2-6.4-6.5-.3.3-.6-.1-.6-1.1 0-.9-.4-1.4-1-1.1-.5.3-1-.1-1-.9 0-.9-.5-1.6-1.1-1.6-.5 0-.7-.5-.4-1 .3-.6.1-1-.5-1-1.5 0-8-6.7-7.3-7.4.4-.3 0-.6-.8-.6s-2.1-.9-2.9-2.1c-.8-1.1-6.3-6.9-12.1-12.9-10.5-10.7-13.6-14.9-10.4-13.6.9.3 1.4.2 1.1-.3-.3-.5 4.4-6 10.4-12.2 6.1-6.2 11-11.5 11-11.8 0-.3 1.5-1.6 3.3-2.9 1.9-1.2 4-3.4 4.7-4.7.7-1.4 2-2.5 2.7-2.5.8 0 1.1-.5.8-1.1-.4-.6.2-1.3 1.3-1.6 1.1-.2 2.3-1.4 2.5-2.5.3-1.1 1-1.7 1.6-1.4.5.4 1.2-.3 1.6-1.4.3-1.1 1.1-2 1.6-2s.9-.7.9-1.5c0-.9.6-1.2 1.7-.8 1 .4 1.4.2 1-.4-.4-.6.1-1.9 1.1-3 .9-1 1.3-1.3.8-.6-.5.8-.4 1.3.3 1.3.6 0 1.3-1.1 1.7-2.4.4-1.7 1.1-2.3 2.2-1.9 1.2.5 1.4.2.9-1.1-.4-.9-.3-1.5.2-1.1.5.3 1.2.1 1.6-.5.4-.6-2.3-1-7.5-1s-7.9.4-7.5 1c.3.5.1 1-.5 1s-3.4 2.2-6.2 5c-2.8 2.7-4.7 5-4.2 5s-.3.8-1.9 1.8c-1.5 1-2.5 2.1-2.1 2.4.3.4-.4.9-1.5 1.3-1.2.3-2.1 1.3-2.1 2.1s-.7 1.4-1.6 1.4c-.8 0-1.3.4-.9 1 .3.5-.7 1.6-2.2 2.4-1.5.8-2.4 1.5-2 1.6.4 0 .2.6-.5 1.4-.7.8-1.6 1.2-2 .9-.5-.2-.8.3-.8 1.1 0 .9-.5 1.6-1.1 1.6-.5 0-.7.4-.4 1 .3.5-.1 1-.9 1-.9 0-1.6.4-1.6.9s-.9 1.2-1.9 1.6c-1.3.4-1.8 1.2-1.4 2.2.4 1 .2 1.4-.4 1-.6-.4-2.1.9-3.4 2.7-1.3 1.9-2.6 3.3-2.9 3.2-.3-.1-1.5.8-2.7 2.1-1.2 1.3-2 2.3-1.8 2.3.2 0-.7 1.1-2.1 2.5-1.4 1.4-2.7 2.5-2.9 2.5-.5 0-7.5 6.9-7.5 7.5 0 .3-3.1 3.7-6.9 7.5-3.9 3.9-6.7 7-6.3 7 .4 0-1 1.1-3.1 2.3-3.3 2-5.1 2.3-11.5 2.2-4.3-.1-8-.3-8.4-.4-1.3-.2-.9-2.9.4-3.4 1-.4 1-.6.1-.6-.7-.1-1.3-.6-1.3-1.2 0-.5.6-.7 1.3-.3.9.6.9.4-.1-.7-1.3-1.4-1.7-6.3-.4-5.5.5.3.9-.1.9-.9s-.4-1.2-.9-.9c-.9.6-.6-2.5.5-4.3.4-.6.2-1.5-.4-1.9-.8-.5-.9-.3-.4.6.5.8.4 1.1-.3.6-1.5-.9-.3-3.8 1.2-2.9.7.4.7.2-.1-.7-.8-.9-.9-1.9-.3-3.1.7-1.2.6-2-.2-2.5-.7-.5-.8-.3-.3.6.5.8.4 1.1-.3.6-.6-.4-.9-1.3-.6-2.1.4-.8 1.1-1.2 1.7-.8.6.4.7.1.2-.8-1.2-1.9-1.4-4.9-.3-5.5.4-.3.8-1.1.8-1.7 0-.7-.4-.6-1 .3-.8 1.2-1 1-.7-1 .1-1.4.7-3.1 1.1-3.9.7-1.1.5-1.3-.5-.9-1.2.5-1.4-.1-1.1-2.3.2-1.6.7-2.7 1.1-2.4.4.2.8-.2.8-1s-.4-1.2-.9-.9c-1 .6-.6-2.6.6-4.5.7-1.1.5-1.3-.5-.9-1.2.5-1.4-.1-1.1-2.3.2-1.6.7-2.7 1.1-2.4.4.2.8-.2.8-1s-.4-1.2-.9-.9c-.9.6-.6-2.5.5-4.3.4-.6.2-1.5-.4-1.9-.8-.5-.9-.3-.4.6.5.8.4 1.1-.3.6-1.5-.9-.3-3.8 1.2-2.9.7.4.7.1-.1-.7-.9-.9-.9-1.7-.2-2.6.7-.8.7-1.4-.1-1.9-.7-.4-.7-1.3.1-2.7.8-1.5.8-1.9 0-1.4-.6.4-1.1.2-1.1-.4 0-.7-2.2-1-6.3-.9-5.8.2-6.3.4-6.5 2.6zM140 128.5V208h13V49h-13v79.5z"/><path d="M164 54.2c-.1 2.9-.1 39.8-.1 82.1l-.1 76.7H140v9.8l24.3.7c13.3.3 40.2.5 59.7.3l35.5-.3v-10l-40.9-.3c-22.7-.1-41.2-.6-41.5-1.1-.4-.5-.6-37.4-.5-82V49H164v5.2z"/></svg>