<svg version="1" xmlns="http://www.w3.org/2000/svg" width="346.667" height="346.667" viewBox="0 0 260.000000 260.000000"><path d="M111.1 2.7C97.4 9.6 93.4 15.4 88 35.5c-1.7 6.6-4.3 15.8-5.8 20.5-1.4 4.7-2.7 8.7-2.7 9-.1.3-.5 1.4-1 2.5-8.2 20.4-11 26-20.5 41-8 12.7-12 22.9-13.5 35-.9 6.8-3.3 16.3-5.2 20-.8 1.6-4.7 7.2-8.6 12.3-5.4 7.1-7.2 10.3-7.4 13-.1 2-.5 5.7-.8 8.2-.4 2.5-.8 7.9-1.1 12-.5 10.5-2 16-6 22-4.3 6.6-6.2 16.5-4.2 22.5 1.1 3.3 2 4.2 5.4 5.4 3.9 1.4 4.4 1.3 10.9-1.8 11.7-5.4 15.7-11.1 17-24 .6-5.8 1.7-9.6 5.9-19.8 1.5-3.5 2.8-8 3.1-10 .7-4.8 2.5-8.3 4.2-8.3.7 0 2.4 1.8 3.8 3.9 3 4.9 10.9 13 15 15.4 4.4 2.6 15.5 7.7 16.9 7.7 1.6 0 9.3 5.1 13.6 9 4.8 4.4 9.5 6.6 16.9 8 8.3 1.5 22.1 1.9 24.7.7 4.6-2 4.8-8.7.4-8.7-1 0-2.1-.4-2.4-.9-.3-.5-1.8-1.2-3.3-1.6-4.2-1-23.6-13.3-30.9-19.5-5.2-4.5-9.8-11.7-14.7-23-1.3-3-3.9-7.1-5.9-9-4.6-4.6-12.1-23.4-11.5-28.9.3-3.6 3-8.5 6.6-12.2.9-.9 2.5-2.8 3.5-4.3 2.3-3.2 19.9-15.2 40.6-27.6 13.8-8.3 19.4-12.4 25-18.3.9-1 4.8-2.3 8.6-3.1 8.5-1.6 13.2-3.8 18.4-8.5 4.7-4.2 5.9-8.5 2.9-10.2-3.7-1.9-12.5 3-43.9 24.5-6.3 4.4-15.5 10.9-20.5 14.6-17.2 12.9-28.7 18.9-36.7 19.3-4.7.2-5.4 0-6.7-2.5-1.5-2.6-1.3-3.2 6.1-18 4.2-8.4 9.4-20 11.7-25.8 2.2-5.8 6.1-15.7 8.6-22 2.6-6.3 5.3-15.1 6.1-19.5 2-10.6 4.5-17.3 8.8-23.8 1.9-2.9 3.7-6.4 3.8-7.7.3-2.1-.1-2.4-3.6-2.5-2.4-.1-5.8.8-8.5 2.2z"/><path d="M216.4 25.8c-.6.4-1.1 4.4-1.1 9.2-.2 11.5-5.6 28.5-14.2 44-2.6 4.6-12.1 14.8-17.6 18.8-10.4 7.6-12.7 9.8-16.4 15.6-2.2 3.6-7.9 14.2-12.6 23.7-8.4 16.9-11.1 21.5-16.1 26.4-8.7 8.7-10.6 32.7-3.7 48.2 1.1 2.7 2 3.3 4.4 3.3 3.3 0 9.8 3 11.8 5.4 2.1 2.5 4.8 1.9 9.8-1.9 7.6-5.8 14.2-7.8 26.8-7.9 10-.1 15.5.4 22.5 1.9 20.2 4.3 26 5 30.5 3.5 5-1.6 7.1-5.1 5.5-8.9-1.2-3.1-1-5.7 1.4-16.1 2.3-9.6 1.9-9.8-17.4-11.7-13.1-1.2-34-.7-46 1.2-11.7 1.9-17.5 1-21.6-3-3.5-3.5-3-7.1 2.5-17.7 11.9-23 25.8-40.7 42.9-54.8 2.9-2.3 7.1-7 9.2-10.4 2.2-3.4 4.4-6.6 4.9-7.2 4.5-5.4 11.3-25.1 11-32.1-.4-10-7.2-26.2-12.1-28.9-2.7-1.6-3-1.6-4.4-.6z"/></svg>